<svg width="101" height="18" viewBox="0 0 101 18" fill="none" xmlns="http://www.w3.org/2000/svg">
<g clip-path="url(#clip0)">
<path d="M1.26448 16.5385C0.369546 15.2762 -0.0747079 13.7627 6.3926e-06 12.2308V5.84615C-0.108369 4.29774 0.308067 2.75746 1.18545 1.46154C2.05478 0.461538 3.39828 0 5.37403 0C7.34977 0 8.61425 0.461538 9.40454 1.30769C10.2626 2.37941 10.6846 3.72136 10.59 5.07692V6.61539H6.71753V4.84615C6.74881 4.32289 6.66807 3.799 6.48044 3.30769C6.38015 3.10938 6.2212 2.9448 6.02403 2.83513C5.82685 2.72547 5.60048 2.67572 5.37403 2.69231C4.82082 2.69231 4.42567 2.84615 4.26761 3.23077C4.08883 3.77733 4.00862 4.34988 4.03052 4.92308V13.1538C3.98879 13.71 4.09779 14.267 4.34664 14.7692C4.5047 15.1538 4.89985 15.3077 5.45306 15.3077C6.00627 15.3077 6.32239 15.1538 6.48044 14.7692C6.66013 14.2494 6.74048 13.7019 6.71753 13.1538V11.3077H10.59V12.8462C10.6704 14.2238 10.2508 15.5852 9.40454 16.6923C8.61425 17.6154 7.27074 18.0769 5.37403 18.0769C3.47731 18 2.05478 17.5385 1.26448 16.5385Z" fill="#111111"/>
<path d="M15.2527 0.230713H19.7574L23.0767 17.7692H19.4413L18.8091 14.0769H16.2011L15.5689 17.7692H11.8545L15.2527 0.230713ZM18.493 11.7692L17.5446 4.92302L16.5963 11.7692H18.493Z" fill="#111111"/>
<path d="M25.8427 3.15379H23.1557V0.230713H32.5602V3.07687H29.8732V17.7692H25.8427V3.15379Z" fill="#111111"/>
<path d="M39.752 0.230713H46.7066V2.07687H42.2019V7.8461H45.8372V9.61533H42.2019V16.0769H46.7066V17.8461H39.6729V0.230713H39.752Z" fill="#111111"/>
<path d="M48.7613 0.230713H50.5L55.6369 11.8461V0.230713H57.6917V17.7692H56.1111L50.8951 5.76917V17.7692H48.7613V0.230713Z" fill="#111111"/>
<path d="M60.0626 0.230713H67.0172V2.07687H62.5125V7.8461H66.1479V9.61533H62.5125V16.0769H67.0172V17.8461H60.0626V0.230713Z" fill="#111111"/>
<path d="M69.072 0.230822H72.7074C74.1375 0.13467 75.5587 0.514405 76.7379 1.30774C77.6072 2.00005 78.0024 3.23082 78.0024 4.84621C78.0024 7.07698 77.2911 8.46159 75.7895 8.92313L78.3185 17.6924H75.8686L73.4977 9.46159H71.5219V17.6924H68.993V0.230822H69.072ZM72.5493 7.76928C73.364 7.83463 74.1761 7.61657 74.8412 7.1539C75.3154 6.76928 75.5524 6.00005 75.5524 4.84621C75.5743 4.27301 75.4941 3.70045 75.3154 3.1539C75.1375 2.76171 74.832 2.43735 74.446 2.23082C73.9017 1.9894 73.3042 1.88365 72.7074 1.92313H71.601V7.69236H72.5493V7.76928Z" fill="#111111"/>
<path d="M81.1635 16.4616C80.342 15.1166 79.9564 13.5617 80.0571 12V6.15386C80.0376 5.03913 80.1705 3.92681 80.4522 2.84617C80.7167 2.03865 81.2437 1.3367 81.9538 0.846171C82.8362 0.337767 83.8542 0.0967485 84.8779 0.153863C86.5375 0.153863 87.723 0.538479 88.4343 1.38463C89.2524 2.50193 89.6438 3.86239 89.5407 5.23079V5.84617H87.1698V5.30771C87.1734 4.66348 87.1205 4.02012 87.0117 3.38463C86.9451 2.98305 86.7178 2.6235 86.3795 2.38463C85.9353 2.10084 85.4081 1.9658 84.8779 2.00002C84.3113 1.96468 83.7504 2.12845 83.2973 2.46156C83.1114 2.61403 82.9595 2.80183 82.8508 3.01346C82.742 3.22509 82.6789 3.4561 82.6651 3.69233C82.5609 4.38001 82.5081 5.07413 82.507 5.76925V12.3077C82.4488 13.3039 82.6105 14.3006 82.9812 15.2308C83.2973 15.8462 83.9296 16.0769 84.8779 16.0769C85.2524 16.1224 85.6322 16.059 85.9697 15.8947C86.3072 15.7305 86.5873 15.4727 86.7746 15.1539C87.1922 14.1811 87.3812 13.1299 87.3278 12.0769V10.8462H85.036V9.07694H89.6197V17.7692H88.0391L87.802 15.7692C87.5948 16.4395 87.1634 17.0232 86.5763 17.4274C85.9892 17.8316 85.2801 18.0331 84.5618 18C83.9088 18.0374 83.2565 17.9164 82.6633 17.6479C82.0702 17.3794 81.5549 16.9717 81.1635 16.4616Z" fill="#111111"/>
<path d="M94.6776 11.6154L90.8052 0.307739H93.1761L95.9421 8.76928L98.6291 0.307739H101L97.1275 11.6154V17.7693H94.7566V11.6154H94.6776Z" fill="#111111"/>
</g>
<defs>
<clipPath id="clip0">
<rect width="101" height="18" fill="white"/>
</clipPath>
</defs>
</svg>
