<svg width="174" height="52" viewBox="0 0 174 52" fill="none" xmlns="http://www.w3.org/2000/svg">
<g clip-path="url(#clip0)">
<path d="M51.5819 20.854C50.0969 17.265 47.7053 14.1312 44.6456 11.765C41.5858 9.39871 37.9646 7.88264 34.143 7.36783C30.3214 6.85302 26.4328 7.35746 22.8646 8.83088C19.2965 10.3043 16.1735 12.6952 13.8068 15.7654C11.4402 18.8356 9.9125 22.4778 9.37609 26.329C8.83968 30.1802 9.31325 34.106 10.7496 37.7151C12.186 41.3243 14.535 44.4906 17.5625 46.8988C20.59 49.3069 24.1903 50.8726 28.0046 51.4399C27.505 49.6239 26.9967 47.6167 26.5488 45.4878C27.8519 46.3405 29.2235 47.0816 30.6492 47.7036C30.6492 47.7036 30.7526 49.5804 30.8904 51.6745C32.4308 51.7013 33.9698 51.5644 35.4818 51.2661C35.4427 51.0477 35.4427 50.8241 35.4818 50.6057C35.7316 48.9809 36.4208 46.0526 36.5586 44.1671C37.552 43.2297 38.3948 42.1422 39.0567 40.9434L39.005 41.3257C38.5312 45.0273 37.5406 48.9809 36.9376 50.0757C36.7424 50.4381 36.5021 50.7739 36.2226 51.0749C39.3408 50.3371 42.2626 48.924 44.7855 46.9337C47.3083 44.9433 49.3718 42.4233 50.8329 39.5484C52.2941 36.6735 53.1179 33.5124 53.2472 30.2844C53.3765 27.0563 52.8083 23.8385 51.5819 20.854ZM50.3156 24.1472C49.9366 24.5208 49.1527 24.7728 49.0235 23.6432C48.8942 22.5136 48.8598 21.7229 48.8598 21.7229C48.8598 21.7229 47.1972 18.7426 46.577 18.7078C45.9568 18.673 41.5549 21.7229 40.3919 23.0524C39.3841 24.1733 39.1859 24.0951 39.1859 26.0675C39.1859 27.5534 39.3755 33.1666 39.2721 37.459L32.2514 39.3446C30.0448 39.9834 27.8007 40.4825 25.5323 40.8391L24.6709 35.7733H24.5503L22.3364 24.3297C22.3364 24.3297 19.0543 23.0784 17.8483 22.7396C17.2821 22.4897 16.6568 22.4084 16.0462 22.5054C15.4356 22.6024 14.8653 22.8736 14.4026 23.287C13.9306 23.7039 13.5531 24.2185 13.296 24.7958C13.0388 25.3731 12.908 25.9995 12.9124 26.6323C13.0945 27.0362 13.2331 27.4586 13.3258 27.8922C13.3689 28.3093 12.2921 28.2659 11.603 28.2659C10.9138 28.2659 10.8105 27.0146 11.3532 25.5462C11.7766 24.417 12.3013 23.3292 12.921 22.2964C13.387 21.3738 13.9881 20.5273 14.7041 19.7853C14.7041 19.7853 14.8247 19.4898 15.7809 19.5767C16.7371 19.6636 22.0521 19.9503 22.0521 19.9503L22.0952 17.9779C27.8722 17.1733 33.6987 16.7842 39.5305 16.8136C39.5305 17.3436 39.5305 17.8736 39.5305 18.4037C41.7394 17.3869 44.118 16.7974 46.5425 16.6658C46.6723 16.6625 46.8008 16.6918 46.9166 16.7509C47.0323 16.8101 47.1317 16.8973 47.2058 17.0047C47.4987 17.3784 49.2819 19.6115 49.4886 19.933C50.0677 20.7677 50.5942 21.6384 51.065 22.5397C50.9037 23.1104 50.6505 23.6506 50.3156 24.1385V24.1472Z" fill="#FDC305"/>
<path d="M48.6363 18.8295C49.0411 19.3508 49.3943 19.8113 49.4977 19.9504C50.0768 20.7851 50.6033 21.6558 51.0741 22.5571C50.9102 23.1091 50.6601 23.6312 50.3333 24.1038C49.9543 24.4774 49.1704 24.7294 49.0411 23.5998C48.9119 22.4702 48.8602 21.723 48.8602 21.723C48.8602 21.723 47.1977 18.7426 46.5775 18.7078C45.9572 18.6731 41.5553 21.723 40.3924 23.0524C39.3845 24.1733 39.1864 24.0951 39.1864 26.0675C39.1864 27.3709 39.3328 31.8458 39.2984 35.8255C40.8576 35.9993 43.149 36.4337 43.8381 37.459C43.8381 37.459 43.5883 31.2202 50.5659 34.4873C50.5659 34.4873 50.8071 25.9806 60.4378 28.1616C57.1639 24.2844 53.1505 21.1108 48.6363 18.8295Z" fill="#F06351"/>
<path d="M39.5654 16.8135C39.6005 11.9986 39.1968 7.19065 38.3594 2.45029C38.3594 2.45029 38.2302 1.3207 37.61 2.24175C37.0982 3.34286 36.7499 4.51397 36.5763 5.71742C32.8938 5.47908 29.1975 5.57797 25.5328 6.01285C24.8264 3.62333 23.6204 2.53718 23.0432 2.82392C22.4661 3.11067 22.3972 5.67397 22.3972 5.67397L22.1129 17.9778C27.8956 17.1724 33.7279 16.7833 39.5654 16.8135Z" fill="#F06351"/>
<path d="M39.0651 40.9433C39.1771 40.0136 39.2374 38.7797 39.2719 37.4155L32.2516 39.3011C30.0459 39.9545 27.8019 40.4682 25.5327 40.8391L26.4889 45.1836C26.4889 45.2792 26.4889 45.3748 26.5492 45.4704C27.8522 46.323 29.2238 47.0642 30.6494 47.6861C32.7328 46.6815 34.7171 45.4799 36.5757 44.0975V44.1496C37.5647 43.2169 38.4044 42.1353 39.0651 40.9433Z" fill="#E55645"/>
<path d="M27.5657 14.0938C27.5227 14.0069 28.4271 14.6847 28.7803 14.8932C29.1334 15.1018 29.3057 15.2582 29.3057 15.4059C29.3057 15.5536 29.0818 15.7013 28.7717 15.7013C28.4616 15.7013 27.9792 15.5971 27.9103 15.4754C27.8414 15.3538 28.4271 15.4754 28.72 15.4754H28.9698C28.4395 15.084 27.9667 14.6189 27.5657 14.0938Z" fill="black"/>
<path d="M34.0264 14.1894C34.0264 14.1894 33.165 15.3016 33.0875 15.3537C33.0099 15.4059 32.941 15.6492 33.2511 15.6057C33.6071 15.5521 33.9585 15.4708 34.302 15.3624C34.3968 15.3103 34.3623 15.1886 34.1986 15.206C34.035 15.2234 33.6129 15.2495 33.3373 15.3016L34.0694 14.1981C34.0694 14.1981 34.0953 14.0938 34.0264 14.1894Z" fill="black"/>
<path d="M31.3215 19.4985C31.7208 19.321 32.0508 19.0156 32.2604 18.6296C32.5016 18.0561 32.2604 17.8389 31.8814 17.7607C31.36 17.6647 30.8218 17.7702 30.374 18.0561C30.038 18.3776 30.0811 18.6904 30.374 18.925C30.6649 19.1552 30.9832 19.3478 31.3215 19.4985Z" fill="black"/>
<path d="M31.0113 20.5934C30.9124 20.7904 30.778 20.9672 30.615 21.1147C30.3697 21.3138 30.0682 21.4294 29.7537 21.4449C29.2794 21.4919 28.8052 21.3552 28.4271 21.0626C28.2535 20.9601 28.099 20.8278 27.9706 20.6716C27.8844 20.5769 27.7785 20.5027 27.6605 20.4543C27.6605 20.4543 28.3065 24.0256 29.8743 24.5991C31.442 25.1726 31.7348 23.9387 31.7779 23.6085C31.8304 22.6196 31.5841 21.6379 31.0716 20.7932C31.0716 20.5325 31.0544 20.7063 31.0113 20.5934Z" fill="#F06351"/>
<path d="M29.5469 21.5839C29.1438 21.5255 28.7566 21.3852 28.4087 21.1717C28.0608 20.9581 27.7594 20.6757 27.5226 20.3414C27.5015 20.3175 27.4897 20.2865 27.4897 20.2545C27.4897 20.2224 27.5015 20.1915 27.5226 20.1676C27.5339 20.156 27.5473 20.1468 27.5621 20.1406C27.5769 20.1343 27.5927 20.1311 27.6088 20.1311C27.6248 20.1311 27.6407 20.1343 27.6555 20.1406C27.6703 20.1468 27.6837 20.156 27.6949 20.1676C27.9081 20.4692 28.1785 20.7252 28.4905 20.9206C28.8025 21.116 29.1499 21.247 29.5124 21.3059C29.7993 21.2841 30.0769 21.194 30.3225 21.043C30.5681 20.8919 30.7746 20.6842 30.9251 20.437L31.0457 20.2719L31.1319 20.463C31.1319 20.463 31.4592 21.1234 31.9932 21.1582C32.5273 21.1929 32.9063 20.7932 33.3973 20.0372C33.4156 20.0096 33.444 19.9904 33.4763 19.9839C33.5086 19.9774 33.5422 19.9841 33.5696 20.0025C33.597 20.0209 33.616 20.0496 33.6225 20.0822C33.629 20.1148 33.6223 20.1486 33.604 20.1763C33.0298 21.0278 32.4871 21.4362 31.976 21.4014C31.7785 21.375 31.5893 21.3044 31.4224 21.1946C31.2554 21.0849 31.115 20.9388 31.0113 20.7671C30.8427 21.0045 30.6238 21.201 30.3705 21.3423C30.1172 21.4836 29.8358 21.5662 29.5469 21.5839Z" fill="black"/>
<path d="M31.2353 33.2796C33.0192 33.2796 34.4655 31.8207 34.4655 30.0211C34.4655 28.2215 33.0192 26.7627 31.2353 26.7627C29.4513 26.7627 28.0051 28.2215 28.0051 30.0211C28.0051 31.8207 29.4513 33.2796 31.2353 33.2796Z" fill="#FDC305"/>
<path d="M35.5163 27.3709L32.8202 28.5092L33.8108 23.6172L27.3504 32.0978L30.0465 30.9595L29.0559 35.8602L35.5163 27.3709ZM29.1507 30.6989L32.734 25.998L32.0363 29.4737L33.7591 28.7612L30.1499 33.4707L30.8476 29.995L29.1507 30.6989Z" fill="#111111"/>
<path d="M27.9447 29.4215C28.4775 29.4215 28.9095 28.9858 28.9095 28.4483C28.9095 27.9108 28.4775 27.4751 27.9447 27.4751C27.4119 27.4751 26.9799 27.9108 26.9799 28.4483C26.9799 28.9858 27.4119 29.4215 27.9447 29.4215Z" fill="#111111"/>
<path d="M33.5612 32.9493C33.9371 32.9493 34.2417 32.642 34.2417 32.2629C34.2417 31.8837 33.9371 31.5764 33.5612 31.5764C33.1854 31.5764 32.8807 31.8837 32.8807 32.2629C32.8807 32.642 33.1854 32.9493 33.5612 32.9493Z" fill="#111111"/>
<path d="M34.3882 31.0638C34.5547 31.0638 34.6897 30.9277 34.6897 30.7597C34.6897 30.5917 34.5547 30.4556 34.3882 30.4556C34.2217 30.4556 34.0867 30.5917 34.0867 30.7597C34.0867 30.9277 34.2217 31.0638 34.3882 31.0638Z" fill="#111111"/>
<path d="M39.5224 18.3862C37.9674 19.8002 36.5029 21.3122 35.1377 22.9133C33.7778 24.5028 32.2433 25.9312 30.5635 27.171C30.374 26.7104 29.1594 25.8502 29.1594 25.8502C29.1594 25.8502 26.4545 23.982 24.6799 22.5136C23.7207 21.7076 22.8169 20.8367 21.9751 19.9068L20.2522 19.8112C22.7392 23.4756 26.3826 26.1829 30.5893 27.4925C31.3302 27.3708 33.4148 25.8676 34.974 24.6424C36.8187 23.06 38.5461 21.3437 40.1426 19.5071C40.5717 18.9927 40.9044 18.4038 41.1246 17.7693C40.1426 18.0995 39.5224 18.3862 39.5224 18.3862Z" fill="#F06351"/>
<path d="M22.3368 24.3297C22.3368 24.3297 19.0548 23.0784 17.8488 22.7395C17.2825 22.4896 16.6572 22.4084 16.0466 22.5054C15.4361 22.6024 14.8658 22.8736 14.4031 23.287C13.931 23.7039 13.5536 24.2185 13.2964 24.7957C13.0393 25.373 12.9084 25.9994 12.9128 26.6323C13.0949 27.0361 13.2335 27.4585 13.3263 27.8922C13.3694 28.3093 12.2926 28.2658 11.6034 28.2658C10.9143 28.2658 10.8109 27.0146 11.3536 25.5461C11.777 24.417 12.3018 23.3292 12.9214 22.2964C8.22664 24.7641 0 30.4642 0 30.4642C2.35316 30.3211 4.71429 30.3909 7.0551 30.6727C11.5776 31.1333 11.3622 34.7306 11.3622 34.7306C12.9529 34.2882 14.574 33.9659 16.2121 33.7661C18.0383 33.6444 18.1675 35.6082 18.1675 35.6082L18.6241 38.9622C19.3173 38.2056 20.0819 37.5189 20.9069 36.9116C21.9703 36.0529 23.3243 35.6475 24.6799 35.782L22.3368 24.3297Z" fill="#F06351"/>
<path d="M73.7899 36.4946C72.9025 35.1682 72.4782 33.5815 72.584 31.9849V25.468C72.472 23.8596 72.8899 22.259 73.7727 20.9149C74.5709 19.878 75.9348 19.3624 77.8643 19.3682C79.7938 19.374 81.1002 19.8287 81.7836 20.7324C82.6168 21.8523 83.0234 23.2369 82.9292 24.6338V26.1631H79.3631V24.5035C79.3583 24.0668 79.3208 23.6311 79.2511 23.2001C79.208 22.8881 79.066 22.5985 78.8462 22.3747C78.7106 22.2573 78.5531 22.1685 78.3831 22.1133C78.213 22.0581 78.0337 22.0376 77.8557 22.0532C77.6 22.0147 77.3388 22.0566 77.1076 22.1732C76.8764 22.2898 76.6864 22.4754 76.5636 22.7049C76.3371 23.3151 76.2374 23.9657 76.2707 24.6165V32.8886C76.2314 33.5436 76.3465 34.1987 76.6066 34.8002C76.7309 35.0172 76.9153 35.1928 77.1372 35.3055C77.3591 35.4182 77.6088 35.463 77.8557 35.4345C78.0982 35.4691 78.3454 35.4255 78.5619 35.3101C78.7785 35.1946 78.9533 35.0131 79.0616 34.7915C79.27 34.1801 79.3606 33.5342 79.3286 32.8886V31.1507H82.8948V32.654C82.9997 34.0715 82.6263 35.4832 81.8353 36.6597C81.0772 37.6155 79.7679 38.0847 77.9073 38.0847C76.0467 38.0847 74.591 37.5633 73.7899 36.4946Z" fill="#111111"/>
<path d="M87.788 19.6201H91.871L95.3166 37.8674H91.9227L91.3111 33.8356H88.4513L87.7622 37.8413H84.3167L87.788 19.6201ZM90.9321 31.5417L89.8468 24.208L88.77 31.5417H90.9321Z" fill="#111111"/>
<path d="M97.9615 22.3659H95.1707V19.6201H104.405V22.3659H101.648V37.8413H97.9529L97.9615 22.3659Z" fill="#111111"/>
<path d="M111.65 19.6201H118.653V21.5144H114.174V27.5359H117.809V29.3346H114.174V36.0166H118.696V37.8413H111.65V19.6201Z" fill="#444444"/>
<path d="M120.729 19.6201H122.452L127.62 31.7241V19.6201H129.722V37.8674H128.111L122.943 25.4245V37.8413H120.807L120.729 19.6201Z" fill="#444444"/>
<path d="M132.505 19.6201H139.499V21.5144H135.02V27.5359H138.69V29.3346H135.055V36.0166H139.551V37.8413H132.505V19.6201Z" fill="#444444"/>
<path d="M141.576 19.6202H145.211C146.643 19.5039 148.07 19.9076 149.234 20.7585C150.095 21.5144 150.517 22.7483 150.517 24.4601C150.517 26.7772 149.773 28.1935 148.286 28.7091L150.87 37.8414H148.424L146.055 29.2912H144.1V37.8414H141.576V19.6202ZM145.021 27.4404C145.851 27.5214 146.681 27.2858 147.347 26.7801C147.618 26.4569 147.82 26.0813 147.942 25.6763C148.063 25.2714 148.101 24.8456 148.053 24.4253C148.071 23.8358 147.986 23.2477 147.804 22.6875C147.73 22.4809 147.615 22.2914 147.467 22.1302C147.319 21.969 147.141 21.8394 146.942 21.749C146.383 21.5176 145.78 21.4138 145.176 21.4449H144.065V27.4752L145.021 27.4404Z" fill="#444444"/>
<path d="M153.911 36.4945C153.088 35.0926 152.707 33.4714 152.817 31.8458V25.7634C152.788 24.5896 152.933 23.418 153.248 22.2877C153.497 21.438 154.026 20.6993 154.747 20.1937C155.618 19.6643 156.626 19.4101 157.641 19.4638C158.298 19.4008 158.961 19.4832 159.582 19.7053C160.204 19.9275 160.771 20.2839 161.242 20.7498C162.068 21.9176 162.459 23.3426 162.344 24.7728V25.4506H159.976V24.8858C159.992 24.2103 159.94 23.5349 159.821 22.8699C159.742 22.4438 159.509 22.0626 159.166 21.8012C158.719 21.535 158.202 21.4108 157.684 21.4449C157.122 21.3963 156.562 21.5709 156.125 21.9315C155.768 22.2734 155.534 22.7261 155.462 23.2175C155.353 23.9332 155.304 24.657 155.315 25.3811V32.15C155.247 33.1785 155.421 34.2088 155.824 35.1564C156.057 35.4478 156.354 35.6815 156.691 35.8395C157.028 35.9975 157.396 36.0758 157.768 36.0682C158.139 36.0607 158.504 35.9675 158.835 35.796C159.165 35.6244 159.452 35.3789 159.674 35.0782C160.089 34.076 160.269 32.9906 160.2 31.9067V30.6207H157.908V28.822H162.474V37.8414H160.914L160.665 35.7473C160.467 36.443 160.042 37.0509 159.459 37.4721C158.876 37.8933 158.168 38.1031 157.452 38.0673C156.778 38.1272 156.1 38.0144 155.481 37.7395C154.862 37.4645 154.322 37.0363 153.911 36.4945Z" fill="#444444"/>
<path d="M167.711 31.4113L163.809 19.6201H166.152L168.917 28.4136L171.639 19.6201H174.008L170.132 31.4113V37.8413H167.72L167.711 31.4113Z" fill="#444444"/>
</g>
<defs>
<clipPath id="clip0">
<rect width="174" height="51.6832" fill="white"/>
</clipPath>
</defs>
</svg>
