<svg xmlns="http://www.w3.org/2000/svg">
  <symbol viewBox="0 0 20 20" id="icon-close">
    <title>Закрыть</title>
    <line y1="-0.75" x2="24.7577" y2="-0.75" transform="matrix(0.686589 -0.727046 0.686589 0.727046 2.00171 20)" stroke="black" stroke-width="1.5"/>
    <line y1="-0.75" x2="24.7577" y2="-0.75" transform="matrix(0.686589 0.727046 -0.686589 0.727046 1 2)" stroke="black" stroke-width="1.5"/>
  </symbol>

  <symbol viewBox="0 0 24 18" id="burger">
    <title>Открыть</title>
    <line y1="1.25" x2="24" y2="1.25" stroke="black" stroke-width="1.5"/>
    <line y1="9.25" x2="24" y2="9.25" stroke="black" stroke-width="1.5"/>
    <line y1="17.25" x2="24" y2="17.25" stroke="black" stroke-width="1.5"/>
  </symbol>

  <symbol viewBox="0 0 100 106" id="cat-1">
    <title>Худой кот</title>
    <circle cx="50" cy="56" r="50" fill="#68B738"/>
    <g clip-path="url(#clip0)">
      <path d="M69.84 0H69.46C68.818 0.362938 68.307 0.919413 68 1.59C67.4377 2.67211 67.0047 3.81665 66.71 5C66.6468 5.35582 66.4671 5.68054 66.1992 5.92311C65.9313 6.16567 65.5903 6.31232 65.23 6.34C64.1279 6.52999 63.0837 6.96931 62.1773 7.62443C61.2709 8.27955 60.5262 9.13313 60 10.12C59.2766 11.4013 58.6579 12.739 58.15 14.12C56.73 17.8 55.64 21.6 54.3 25.31C53.67 27 53.64 27 51.74 27C49.47 27 49.63 26.65 49.6 29.15C49.6 29.94 49.84 30.34 50.68 30.3C50.94 30.3 51.33 30.17 51.43 30.51C51.53 30.85 51.19 31 50.99 31.2C49.8043 32.4036 48.3037 33.2492 46.66 33.64C44.76 34.15 42.82 34.55 40.97 35.17C36.22 36.76 31.83 38.98 28.41 42.74C26.4103 45.0754 24.8088 47.7242 23.67 50.58C20 59.22 18.22 68.32 16.84 77.51C16.19 81.82 15.73 86.15 15.38 90.51C15.2 92.65 15 94.82 15 97H48.33C48.3853 96.5599 48.3051 96.1133 48.1 95.72C47.7794 94.9221 47.2586 94.2204 46.5877 93.6827C45.9167 93.1449 45.1185 92.7892 44.27 92.65C43.57 92.49 43.49 92.28 43.92 91.73C44.6214 90.7939 45.159 89.7458 45.51 88.63C47.14 83.82 47.77 78.8 48.56 73.83C49.0063 70.0338 50.1739 66.3579 52 63C53.4244 60.5284 55.3243 58.3634 57.59 56.63C58.42 56 58.45 56 58.59 57.07C58.69 57.78 58.71 58.51 58.76 59.23C59.0601 63.9544 58.9999 68.6948 58.58 73.41C58.2024 77.0649 58.1522 80.7462 58.43 84.41C58.8275 88.6636 59.5869 92.8755 60.7 97H74C73.8264 95.9175 73.328 94.9132 72.5708 94.1203C71.8136 93.3274 70.8334 92.7833 69.76 92.56C68.5066 92.3608 67.2252 92.429 66 92.76C65.4 92.9 65.15 92.76 65.1 92.11C64.6863 86.8159 65.0229 81.4899 66.1 76.29C67.4338 70.287 68.4552 64.2189 69.16 58.11C69.4224 55.643 70.1992 53.2584 71.44 51.11C72.63 48.99 73.67 46.79 74.84 44.66C75.3045 43.8855 75.5841 43.0143 75.657 42.1141C75.7298 41.2139 75.594 40.3091 75.26 39.47C74.99 38.76 74.73 38.04 74.4 37.36C73.4 35.41 72.4 33.48 71.48 31.51C70.99 30.51 71.1 30.39 72.19 30.36C73.82 30.36 73.82 30.36 73.85 28.72C73.85 28.5 73.85 28.28 73.85 28.06C73.85 27.37 73.59 26.99 72.85 27.06C72.35 27.06 71.85 27.06 71.33 27.06C70.64 27.06 70.44 26.77 70.61 26.06C70.9473 24.9058 71.611 23.8737 72.5211 23.0877C73.4312 22.3018 74.549 21.7956 75.74 21.63C77.9557 21.4379 80.1878 21.5829 82.36 22.06C82.6107 22.139 82.8823 22.1161 83.1162 21.9963C83.3502 21.8766 83.5275 21.6695 83.61 21.42C84.01 20.42 84.45 19.42 84.9 18.42C85.002 18.2426 85.0471 18.0381 85.0292 17.8343C85.0113 17.6304 84.9313 17.437 84.8 17.28C81.6 13.22 78.13 9.43 73.4 7C73.1715 6.90163 72.9712 6.7476 72.8175 6.55196C72.6638 6.35633 72.5615 6.12531 72.52 5.88C72.2523 4.45051 71.8264 3.05525 71.25 1.72C70.9795 1.00861 70.4845 0.404782 69.84 0V0Z" fill="black"/>
    </g>
    <defs>
      <clipPath id="clip0">
      <rect width="70" height="97" fill="white" transform="translate(15)"/>
      </clipPath>
    </defs>
  </symbol>

  <symbol viewBox="0 0 134 100" id="cat-2">
    <title>Сильный кот</title>
    <circle cx="69" cy="50" r="50" fill="#68B738"/>
    <g clip-path="url(#clip0)">
      <path d="M123.1 25.8C124.254 23.9631 125.789 22.3946 127.6 21.2C128.6 20.5 129.2 20.5 129.8 21.8C130.6 23.7 131.3 25.7 130.7 27.8C130.591 28.1562 130.57 28.5336 130.64 28.8995C130.71 29.2655 130.867 29.6089 131.1 29.9C131.7 30.7 132.2 31.5 132.7 32.2C133.38 33.0638 133.822 34.0913 133.98 35.1795C134.138 36.2678 134.007 37.3784 133.6 38.4C133.233 39.3918 133.163 40.4692 133.4 41.5C133.6 42.49 133.6 43.51 133.4 44.5C133.319 45.2414 133.019 45.9419 132.538 46.5119C132.057 47.0819 131.417 47.4956 130.7 47.7C129.421 47.9434 128.279 48.6569 127.5 49.7C127.405 49.8536 127.273 49.9803 127.115 50.0679C126.958 50.1555 126.78 50.201 126.6 50.2C125.4 50.4 122.4 47.7 122.4 46.5V45.9C122.5 42.3 122.3 42 119 40.5C118.309 40.2564 117.69 39.8439 117.2 39.3C116.6 38.5 115.8 38.6 114.9 38.9C114 39.2 113.5 39.8 113.6 40.8C113.901 43.2209 114.002 45.6626 113.9 48.1C113.907 48.3782 113.975 48.6514 114.1 48.9C117.2 53.4 118.4 58.7 119.9 63.8C121.1 67.7 123.3 69.8 127.3 70.1C127.94 70.1511 128.575 70.2514 129.2 70.4C130.022 70.532 130.785 70.9076 131.391 71.478C131.997 72.0485 132.418 72.7877 132.6 73.6C133.3 75.7 132.9 76.2 130.8 76.2H124.3C123.458 76.2426 122.633 75.9556 122 75.4C120.988 74.5459 119.838 73.8696 118.6 73.4C117.231 72.8947 116.046 71.9887 115.2 70.8C114.029 69.1635 112.688 67.6551 111.2 66.3C108.4 63.4 105.4 60.6 102.8 57.6C100.821 55.5558 99.6789 52.8443 99.5999 50C99.5999 49.1 99.3999 48.7 98.3999 49.1C98.1005 49.29 97.7545 49.3938 97.3999 49.4C94.5999 49.4 93.1999 51.1 92.1999 53.6C91.2999 55.7 90.0999 57.7 88.9999 59.8C88.3762 61.1145 88.0355 62.5454 87.9999 64C87.9999 66.4 88.5999 67.2 90.7999 68C92.1999 68.5 93.4999 69 94.1999 70.4C94.9999 72 94.7999 72.4 93.0999 72.5H86.2999C85.9079 72.5388 85.5136 72.4535 85.1727 72.2562C84.8317 72.0588 84.5614 71.7593 84.3999 71.4L82.5999 68.4C82.0693 67.6172 81.7296 66.721 81.6081 65.7832C81.4865 64.8454 81.5865 63.8922 81.8999 63C82.3327 61.2635 82.3669 59.4516 81.9999 57.7C81.7478 56.4801 81.7696 55.2195 82.0635 54.009C82.3575 52.7986 82.9164 51.6684 83.6999 50.7C84.2999 50 84.2999 49.7 83.2999 49.5C79.2108 48.6314 75.2466 47.254 71.4999 45.4C71.4734 45.4 71.448 45.3895 71.4292 45.3707C71.4105 45.352 71.3999 45.3265 71.3999 45.3C68.1999 44.1 67.5999 44.3 66.6999 47.6C65.8999 50.4 65.0999 53.2 64.4999 56.1C63.7999 59.3 64.5999 62.3 65.5999 65.3C65.9999 66.5 67.1999 66.4 68.0999 66.7C70.0999 67.3 71.7999 68.1 72.5999 70.2C73.2999 71.8 73.1999 72 71.4999 72C69.7999 72 68.0999 71.9 66.2999 72C64.781 72.0275 63.2985 71.5334 62.0999 70.6C57.2999 67.4 55.8999 62.5 55.4999 57.2C55.2999 53.9 53.4999 51.3 51.3999 48.8C50.9999 48.3 50.5999 48.1 49.9999 48.5C47.8534 49.6836 45.6124 50.687 43.2999 51.5C38.4742 53.204 34.2395 56.2585 31.0999 60.3C29.9276 61.775 29.1683 63.5351 28.8999 65.4C28.5999 67.2 29.0999 68 30.8999 68.5C32.6999 69 33.5999 70 33.7999 71.9C33.8999 72.7 33.5999 73.1 32.7999 73.1H24.6999C24.4348 73.0812 24.1782 72.9987 23.9518 72.8594C23.7255 72.7201 23.5362 72.5282 23.3999 72.3C22.1438 70.7448 21.4716 68.799 21.4999 66.8C21.4474 63.3449 21.749 59.8936 22.3999 56.5C22.5334 55.4837 22.9128 54.5153 23.5053 53.6788C24.0978 52.8424 24.8855 52.1631 25.7999 51.7C31.6999 48.9 34.7999 43.6 37.5999 38.1C38.1999 37 37.6999 36.8 36.6999 36.9C33.9013 37.2885 31.2496 38.3905 28.9999 40.1C26.0541 42.2488 23.2791 44.6226 20.6999 47.2C17.9496 49.9937 14.3026 51.7286 10.3999 52.1C3.09992 52.5 -0.300081 48.4 -8.06041e-05 41.8C0.0669819 39.5496 0.915567 37.3928 2.39992 35.7C2.91594 35.031 3.61965 34.531 4.42119 34.2638C5.22272 33.9966 6.0857 33.9744 6.89992 34.2C8.39992 34.6 8.79992 35.4 8.19992 36.9C7.89992 37.5 7.49992 38 7.19992 38.6C6.76852 39.213 6.43144 39.8871 6.19992 40.6C5.09992 43.6 6.59992 45.7 9.69992 46C12.9999 46.3 15.6999 44.9 18.1999 42.9C21.2118 40.4882 23.9006 37.6986 26.1999 34.6C27.9192 32.3374 30.084 30.4513 32.5607 29.0581C35.0375 27.665 37.7735 26.7943 40.5999 26.5C42.8999 26.2 44.8999 25.2 47.0999 24.6C51.2144 23.3456 55.4989 22.7384 59.7999 22.8C61.792 22.883 63.7765 22.5066 65.5999 21.7C70.4999 19.7 75.5999 19.7 80.6999 20.7C84.6999 21.5 88.6999 22.5 92.5999 23.5C94.9209 23.9325 97.3074 23.8643 99.5999 23.3C103.989 22.1875 108.478 21.5175 113 21.3C115.962 21.1559 118.915 21.7395 121.6 23C123.6 23.9 123.6 23.9 123.1 25.8Z" fill="black"/>
    </g>
    <defs>
      <clipPath id="clip0">
      <rect width="134" height="56" fill="white" transform="translate(0 20)"/>
      </clipPath>
    </defs>
  </symbol>

  <symbol viewBox="0 0 23 16" id="icon-vkontakte">
    <title>Вконтакте</title>
    <path d="M0.0700912 3.99266C0.0700912 3.37082 0.493211 3.03552 1.33945 2.98675L4.60039 3.00503C4.81925 3.00503 4.96515 3.09648 5.03811 3.27938C5.37368 4.19385 5.74938 4.98334 6.16521 5.64785C6.58103 6.31237 7.12453 7.07747 7.79568 7.94317C7.85404 8.05291 7.94888 8.10778 8.08019 8.10778C8.18233 8.10778 8.26257 8.0651 8.32093 7.97975L8.38659 7.77857L8.40848 4.6145C8.40848 4.39503 8.34647 4.24871 8.22245 4.17556C8.09843 4.1024 7.86863 4.04753 7.53305 4.01095C7.27043 3.97437 7.13912 3.84025 7.13912 3.60859C7.13912 3.55981 7.14641 3.52323 7.161 3.49885C7.4674 2.70631 8.34282 2.31004 9.78726 2.31004L11.0129 2.29175C11.5673 2.29175 12.0269 2.40758 12.3916 2.63925C12.7564 2.87091 12.9388 3.2367 12.9388 3.73661V7.88831C13.0409 7.94927 13.1357 7.97975 13.2233 7.97975C13.4421 7.97975 13.6318 7.87002 13.7923 7.65054C15.3973 5.77283 16.2654 4.51696 16.3967 3.88293C16.3967 3.87073 16.4113 3.84025 16.4405 3.79148C16.5426 3.60859 16.7104 3.45008 16.9438 3.31595C17.1773 3.18183 17.3815 3.09039 17.5566 3.04161C17.615 3.01723 17.6806 3.00503 17.7536 3.00503H21.1459L21.3647 3.02332C21.6565 3.02332 21.8827 3.13916 22.0432 3.37082C22.1015 3.44398 22.1416 3.52323 22.1635 3.60859C22.1854 3.69394 22.2 3.77929 22.2073 3.86464C22.2146 3.94999 22.2182 3.99876 22.2182 4.01095V4.13898C22.1161 4.63889 21.8571 5.17233 21.4413 5.7393C21.0255 6.30627 20.4966 6.91897 19.8546 7.57739C19.2126 8.2358 18.8114 8.66865 18.6509 8.87593C18.5196 9.02225 18.4539 9.15637 18.4539 9.2783C18.4539 9.37584 18.5123 9.48558 18.629 9.60751L21.8243 12.9728C21.9994 13.1678 22.0869 13.3812 22.0869 13.6129C22.0869 13.8933 21.9556 14.125 21.693 14.3079C21.4304 14.4908 21.1167 14.5944 20.7519 14.6188L20.3799 14.6371H17.0533C17.0387 14.6371 17.0095 14.6401 16.9657 14.6462C16.9219 14.6523 16.8928 14.6554 16.8782 14.6554C16.5572 14.6554 16.2581 14.5396 15.9809 14.3079C15.8787 14.2103 15.193 13.491 13.9236 12.1497C13.8507 12.0644 13.7485 11.9851 13.6172 11.912C13.5589 12.1071 13.4823 12.3875 13.3874 12.7533C13.2926 13.1191 13.2233 13.3812 13.1795 13.5397L13.1139 13.8507C12.968 14.2774 12.6616 14.5335 12.1947 14.6188L11.8883 14.6371H9.74349C8.53249 14.6371 7.32514 14.1738 6.12144 13.2471C4.91773 12.3204 3.8344 11.1225 2.87144 9.65323C1.90848 8.18398 1.01117 6.47392 0.179519 4.52306C0.106567 4.36455 0.0700912 4.18775 0.0700912 3.99266ZM13.2233 8.72962C12.9169 8.72962 12.6397 8.65951 12.3916 8.51929C12.1436 8.37907 12.0196 8.18703 12.0196 7.94317V3.73661C12.0196 3.49275 11.9466 3.319 11.8007 3.21536C11.6548 3.11172 11.3995 3.0599 11.0347 3.0599L9.78726 3.09648C9.15988 3.09648 8.68569 3.18793 8.3647 3.37082C9.00668 3.62687 9.32767 4.04143 9.32767 4.6145V7.83344C9.29849 8.13826 9.15258 8.39126 8.88996 8.59245C8.62733 8.79363 8.33552 8.89422 8.01454 8.89422C7.57683 8.89422 7.24125 8.71742 7.0078 8.36383C5.86975 6.92506 5.02351 5.55945 4.46908 4.267L4.27211 3.79148L1.36134 3.77319C1.17166 3.77319 1.06588 3.78233 1.044 3.80062C1.02211 3.81891 1.01117 3.87073 1.01117 3.95608C1.01117 4.06582 1.02576 4.18165 1.05494 4.30358L1.51454 5.32779C2.74013 7.97366 4.07149 10.0586 5.50864 11.5828C6.94579 13.1069 8.35741 13.8689 9.74349 13.8689H11.932C12.0196 13.8689 12.0852 13.8476 12.129 13.8049C12.1728 13.7623 12.2093 13.6799 12.2384 13.558L12.2822 13.3751L12.698 11.7657C12.8148 11.5462 12.9169 11.3999 13.0044 11.3267C13.1649 11.1926 13.3546 11.1255 13.5735 11.1255C13.9236 11.1255 14.2811 11.3023 14.6458 11.6559L16.5061 13.6312C16.6228 13.7897 16.7469 13.8689 16.8782 13.8689H20.4893C20.927 13.8689 21.1459 13.7775 21.1459 13.5946C21.1459 13.5336 21.124 13.4727 21.0802 13.4117L17.9068 10.1013C17.6588 9.84527 17.5347 9.57093 17.5347 9.2783C17.5347 8.98567 17.6515 8.70523 17.8849 8.43699C18.0746 8.19313 18.443 7.78771 18.9901 7.22074C19.5373 6.65377 20.0151 6.12338 20.4236 5.62956C20.8322 5.13575 21.1021 4.68766 21.2334 4.28529L21.299 4.04753C21.2845 4.02314 21.2772 3.98352 21.2772 3.92865C21.2772 3.87378 21.2699 3.82806 21.2553 3.79148H17.8193C17.6004 3.86464 17.4253 3.97437 17.294 4.12069L17.1627 4.46819C16.7979 5.3095 15.8423 6.60805 14.2957 8.36383C13.9893 8.60769 13.6318 8.72962 13.2233 8.72962Z" fill="currentColor"/>
  </symbol>

  <symbol viewBox="0 0 16 16" id="icon-instagram">
    <title>Инстаграм</title>
    <path d="M7.98438 0.0625C9.31771 0.0625 10.4062 0.078125 11.25 0.109375C11.9688 0.140625 12.6094 0.265625 13.1719 0.484375C13.7135 0.692708 14.1823 0.994792 14.5781 1.39062C14.974 1.78646 15.276 2.25521 15.4844 2.79687C15.7031 3.35937 15.8281 4 15.8594 4.71875C15.8906 5.5625 15.9062 6.65104 15.9062 7.98437C15.9062 9.31771 15.8906 10.4062 15.8594 11.25C15.8281 11.9687 15.7031 12.6094 15.4844 13.1719C15.276 13.7135 14.974 14.1823 14.5781 14.5781C14.1823 14.974 13.7135 15.276 13.1719 15.4844C12.6094 15.7031 11.9688 15.8281 11.25 15.8594C10.4062 15.8906 9.31771 15.9062 7.98438 15.9062C6.65104 15.9062 5.5625 15.8906 4.71875 15.8594C4 15.8281 3.35938 15.7031 2.79688 15.4844C2.25521 15.276 1.78646 14.974 1.39062 14.5781C0.994792 14.1823 0.692708 13.7135 0.484375 13.1719C0.265625 12.6094 0.140625 11.9687 0.109375 11.25C0.078125 10.4062 0.0625 9.31771 0.0625 7.98437C0.0625 6.65104 0.078125 5.5625 0.109375 4.71875C0.140625 4 0.265625 3.35937 0.484375 2.79687C0.692708 2.25521 0.994792 1.78646 1.39062 1.39062C1.78646 0.994792 2.25521 0.692708 2.79688 0.484375C3.35938 0.265625 4 0.140625 4.71875 0.109375C5.5625 0.078125 6.65104 0.0625 7.98438 0.0625ZM7.98438 1.09375C6.59896 1.09375 5.46875 1.10937 4.59375 1.14062C4.03125 1.16146 3.51042 1.26042 3.03125 1.4375C2.28125 1.75 1.75 2.28125 1.4375 3.03125C1.26042 3.51042 1.16146 4.03125 1.14062 4.59375C1.10938 5.46875 1.09375 6.59896 1.09375 7.98437C1.09375 9.36979 1.10938 10.5 1.14062 11.375C1.16146 11.9375 1.26042 12.4583 1.4375 12.9375C1.75 13.6875 2.28125 14.2187 3.03125 14.5312C3.51042 14.7083 4.03125 14.8073 4.59375 14.8281C5.46875 14.8594 6.59896 14.875 7.98438 14.875C9.36979 14.875 10.5 14.8594 11.375 14.8281C11.9375 14.8073 12.4583 14.7083 12.9375 14.5312C13.6875 14.2187 14.2188 13.6875 14.5312 12.9375C14.7083 12.4583 14.8073 11.9375 14.8281 11.375C14.8594 10.5 14.875 9.36979 14.875 7.98437C14.875 6.59896 14.8594 5.46875 14.8281 4.59375C14.8073 4.03125 14.7083 3.51042 14.5312 3.03125C14.2188 2.28125 13.6875 1.75 12.9375 1.4375C12.4583 1.26042 11.9375 1.16146 11.375 1.14062C10.5 1.10937 9.36979 1.09375 7.98438 1.09375ZM7.98438 11.1562C8.85938 11.1562 9.60677 10.8464 10.2266 10.2266C10.8464 9.60677 11.1562 8.85937 11.1562 7.98437C11.1562 7.10937 10.8464 6.36198 10.2266 5.74219C9.60677 5.1224 8.85938 4.8125 7.98438 4.8125C7.10938 4.8125 6.36198 5.1224 5.74219 5.74219C5.1224 6.36198 4.8125 7.10937 4.8125 7.98437C4.8125 8.85937 5.1224 9.60677 5.74219 10.2266C6.36198 10.8464 7.10938 11.1562 7.98438 11.1562ZM7.98438 3.92187C9.10938 3.92187 10.0677 4.31771 10.8594 5.10937C11.651 5.90104 12.0469 6.85937 12.0469 7.98437C12.0469 9.10937 11.651 10.0677 10.8594 10.8594C10.0677 11.651 9.10938 12.0469 7.98438 12.0469C6.85938 12.0469 5.90104 11.651 5.10938 10.8594C4.31771 10.0677 3.92188 9.10937 3.92188 7.98437C3.92188 6.85937 4.31771 5.90104 5.10938 5.10937C5.90104 4.31771 6.85938 3.92187 7.98438 3.92187ZM13.1719 3.76562C13.1719 4.02604 13.0781 4.2474 12.8906 4.42969C12.7031 4.61198 12.474 4.70312 12.2031 4.70312C11.9427 4.70312 11.7214 4.61198 11.5391 4.42969C11.3568 4.2474 11.2656 4.02604 11.2656 3.76562C11.2656 3.49479 11.3568 3.26562 11.5391 3.07812C11.7214 2.89062 11.9427 2.79687 12.2031 2.79687C12.4635 2.79687 12.6901 2.89323 12.8828 3.08594C13.0755 3.27865 13.1719 3.50521 13.1719 3.76562Z" fill="currentColor"/>
  </symbol>

  <symbol viewBox="0 0 22 22" id="icon-facebook">
    <title>Фейсбук</title>
    <path d="M16.5 1.83325H13.75C12.5344 1.83325 11.3686 2.30674 10.5091 3.14957C9.64956 3.99239 9.16667 5.1355 9.16667 6.32743V9.02394H6.41667V12.6193H9.16667V19.81H12.8333V12.6193H15.5833L16.5 9.02394H12.8333V6.32743C12.8333 6.08905 12.9299 5.86042 13.1018 5.69186C13.2737 5.52329 13.5069 5.4286 13.75 5.4286H16.5V1.83325Z" stroke="currentColor" stroke-width="1.1" stroke-linecap="round" stroke-linejoin="round"/>
  </symbol>

  <symbol viewBox="0 0 27 34" id="html-academy">
    <title>HTML Academy</title>
    <path d="M13.6426 0.0157537L13.5 0L0 1.40733V26.0129L13.5 34L27 26.0129V1.40733L13.6426 0.0157537ZM25.2344 25.0151L13.5 31.9573L1.76561 25.0151V14.9293L13.4507 21.8451L13.4701 23.0984L5.45351 18.3548L5.44295 19.5801L13.4894 24.3885L13.5088 25.675L5.46408 20.9174L5.45351 22.1427L13.5 26.9511L21.6239 22.1182V20.8929V16.909L25.2432 14.7595L25.2344 25.0151ZM25.2344 13.4519L22.0147 15.3319L20.5325 16.2071L13.4666 12.0201L13.456 13.2454L19.4957 16.818L19.4429 16.8495L19.3126 16.9247L18.4536 17.4166L13.4666 14.4689L13.456 15.6942L17.3921 18.0222L16.4591 18.6314L16.438 18.6436L13.4666 16.902L13.456 18.1273L15.4029 19.2615L13.4155 20.4483L1.7973 13.5762L13.4349 6.61831L25.2344 13.4519ZM25.2344 12.2266L13.4401 5.31075L1.76561 12.2196V2.9897L13.5 1.76442L25.2344 2.9897V12.2266Z" fill="#666666"/>
  </symbol>

  <symbol viewBox="0 0 101 18" id="company-name">
    <title>Кэт энерджи</title>
    <g clip-path="url(#clip0)">
      <path d="M1.26448 16.5385C0.369546 15.2762 -0.0747079 13.7627 6.3926e-06 12.2308V5.84615C-0.108369 4.29774 0.308067 2.75746 1.18545 1.46154C2.05478 0.461538 3.39828 0 5.37403 0C7.34977 0 8.61425 0.461538 9.40454 1.30769C10.2626 2.37941 10.6846 3.72136 10.59 5.07692V6.61539H6.71753V4.84615C6.74881 4.32289 6.66807 3.799 6.48044 3.30769C6.38015 3.10938 6.2212 2.9448 6.02403 2.83513C5.82685 2.72547 5.60048 2.67572 5.37403 2.69231C4.82082 2.69231 4.42567 2.84615 4.26761 3.23077C4.08883 3.77733 4.00862 4.34988 4.03052 4.92308V13.1538C3.98879 13.71 4.09779 14.267 4.34664 14.7692C4.5047 15.1538 4.89985 15.3077 5.45306 15.3077C6.00627 15.3077 6.32239 15.1538 6.48044 14.7692C6.66013 14.2494 6.74048 13.7019 6.71753 13.1538V11.3077H10.59V12.8462C10.6704 14.2238 10.2508 15.5852 9.40454 16.6923C8.61425 17.6154 7.27074 18.0769 5.37403 18.0769C3.47731 18 2.05478 17.5385 1.26448 16.5385Z" fill="#111111"/>
      <path d="M15.2527 0.230713H19.7574L23.0767 17.7692H19.4413L18.8091 14.0769H16.2011L15.5689 17.7692H11.8545L15.2527 0.230713ZM18.493 11.7692L17.5446 4.92302L16.5963 11.7692H18.493Z" fill="#111111"/>
      <path d="M25.8427 3.15379H23.1557V0.230713H32.5602V3.07687H29.8732V17.7692H25.8427V3.15379Z" fill="#111111"/>
      <path d="M39.752 0.230713H46.7066V2.07687H42.2019V7.8461H45.8372V9.61533H42.2019V16.0769H46.7066V17.8461H39.6729V0.230713H39.752Z" fill="#111111"/>
      <path d="M48.7613 0.230713H50.5L55.6369 11.8461V0.230713H57.6917V17.7692H56.1111L50.8951 5.76917V17.7692H48.7613V0.230713Z" fill="#111111"/>
      <path d="M60.0626 0.230713H67.0172V2.07687H62.5125V7.8461H66.1479V9.61533H62.5125V16.0769H67.0172V17.8461H60.0626V0.230713Z" fill="#111111"/>
      <path d="M69.072 0.230822H72.7074C74.1375 0.13467 75.5587 0.514405 76.7379 1.30774C77.6072 2.00005 78.0024 3.23082 78.0024 4.84621C78.0024 7.07698 77.2911 8.46159 75.7895 8.92313L78.3185 17.6924H75.8686L73.4977 9.46159H71.5219V17.6924H68.993V0.230822H69.072ZM72.5493 7.76928C73.364 7.83463 74.1761 7.61657 74.8412 7.1539C75.3154 6.76928 75.5524 6.00005 75.5524 4.84621C75.5743 4.27301 75.4941 3.70045 75.3154 3.1539C75.1375 2.76171 74.832 2.43735 74.446 2.23082C73.9017 1.9894 73.3042 1.88365 72.7074 1.92313H71.601V7.69236H72.5493V7.76928Z" fill="#111111"/>
      <path d="M81.1635 16.4616C80.342 15.1166 79.9564 13.5617 80.0571 12V6.15386C80.0376 5.03913 80.1705 3.92681 80.4522 2.84617C80.7167 2.03865 81.2437 1.3367 81.9538 0.846171C82.8362 0.337767 83.8542 0.0967485 84.8779 0.153863C86.5375 0.153863 87.723 0.538479 88.4343 1.38463C89.2524 2.50193 89.6438 3.86239 89.5407 5.23079V5.84617H87.1698V5.30771C87.1734 4.66348 87.1205 4.02012 87.0117 3.38463C86.9451 2.98305 86.7178 2.6235 86.3795 2.38463C85.9353 2.10084 85.4081 1.9658 84.8779 2.00002C84.3113 1.96468 83.7504 2.12845 83.2973 2.46156C83.1114 2.61403 82.9595 2.80183 82.8508 3.01346C82.742 3.22509 82.6789 3.4561 82.6651 3.69233C82.5609 4.38001 82.5081 5.07413 82.507 5.76925V12.3077C82.4488 13.3039 82.6105 14.3006 82.9812 15.2308C83.2973 15.8462 83.9296 16.0769 84.8779 16.0769C85.2524 16.1224 85.6322 16.059 85.9697 15.8947C86.3072 15.7305 86.5873 15.4727 86.7746 15.1539C87.1922 14.1811 87.3812 13.1299 87.3278 12.0769V10.8462H85.036V9.07694H89.6197V17.7692H88.0391L87.802 15.7692C87.5948 16.4395 87.1634 17.0232 86.5763 17.4274C85.9892 17.8316 85.2801 18.0331 84.5618 18C83.9088 18.0374 83.2565 17.9164 82.6633 17.6479C82.0702 17.3794 81.5549 16.9717 81.1635 16.4616Z" fill="#111111"/>
      <path d="M94.6776 11.6154L90.8052 0.307739H93.1761L95.9421 8.76928L98.6291 0.307739H101L97.1275 11.6154V17.7693H94.7566V11.6154H94.6776Z" fill="#111111"/>
    </g>
    <defs>
      <clipPath id="clip0">
      <rect width="101" height="18" fill="white"/>
      </clipPath>
    </defs>
  </symbol>

  <symbol viewBox="0 0 19 14" id="icon-mail">
    <line x1="1.1793" y1="6" x2="1.1793" y2="14" stroke-width="1.3"/>
    <line x1="18.1793" y1="6" x2="18.1793" y2="14"  stroke-width="1.3"/>
    <line x1="0.529297" y1="13.35" x2="18.5293" y2="13.35"  stroke-width="1.3"/>
    <line x1="0.529297" y1="1.35" x2="18.5293" y2="1.35"  stroke-width="1.3"/>
    <path d="M17.8793 3.1821L9.52932 9.67654L1.1793 3.18209V1.65H4.0293L9.52932 1.65H14.5293H17.8793V3.1821Z"  stroke-width="1.3"/>
  </symbol>

  <symbol  viewBox="0 0 20 20" id="icon-phone">
    <g clip-path="url(#clip0)" fill="currentColor">
      <path d="M17.9 9.4H9.40002V10.6H17.9L15.8 12.7L16.7 13.6L19.8 10.5C19.8974 10.3702 19.95 10.2123 19.95 10.05C19.95 9.88772 19.8974 9.72982 19.8 9.6L16.7 6.5L15.8 7.4L17.9 9.4Z"/>
      <path d="M8.09995 19.4V13.2C8.0884 13.0447 8.02148 12.8987 7.91136 12.7886C7.80125 12.6785 7.65525 12.6116 7.49995 12.6H3.09995C3.1051 12.9167 3.23318 13.2189 3.45712 13.4428C3.68106 13.6668 3.9833 13.7949 4.29995 13.8H6.79995V18.8H3.09995C2.86319 18.8149 2.62585 18.7825 2.4017 18.7048C2.17756 18.6271 1.97109 18.5057 1.7943 18.3475C1.61751 18.1893 1.47393 17.9976 1.37189 17.7834C1.26986 17.5693 1.21142 17.337 1.19995 17.1V3.10001C1.19175 2.6373 1.3651 2.18977 1.68286 1.85331C2.00062 1.51686 2.43752 1.31824 2.89995 1.30001H6.79995V6.30001H4.39995C4.0833 6.30516 3.78106 6.43324 3.55712 6.65718C3.33318 6.88112 3.2051 7.18336 3.19995 7.50001H7.59995C7.75525 7.48846 7.90125 7.42154 8.01136 7.31142C8.12148 7.2013 8.1884 7.05531 8.19995 6.90001V0.600012C8.15226 0.443872 8.06111 0.304534 7.93715 0.198285C7.81319 0.0920352 7.66155 0.0232649 7.49995 1.23734e-05H3.09995C2.70593 -0.0133408 2.31315 0.0511002 1.94405 0.189651C1.57495 0.328202 1.23678 0.538145 0.948872 0.807477C0.660965 1.07681 0.428969 1.40025 0.266146 1.7593C0.103324 2.11835 0.0128689 2.50598 -4.64045e-05 2.90001V16.8C-0.0290254 17.1977 0.0245894 17.597 0.157426 17.9729C0.290263 18.3489 0.499448 18.6932 0.771825 18.9844C1.0442 19.2756 1.37388 19.5072 1.74012 19.6648C2.10637 19.8224 2.50126 19.9024 2.89995 19.9H7.49995C7.57344 19.915 7.64937 19.9133 7.7221 19.895C7.79484 19.8767 7.86253 19.8423 7.92015 19.7942C7.97777 19.7462 8.02385 19.6859 8.05497 19.6176C8.0861 19.5494 8.10147 19.475 8.09995 19.4Z"/>
    </g>
    <defs>
      <clipPath id="clip0">
      <rect width="20" height="20" fill="white"/>
      </clipPath>
    </defs>
  </symbol>
</svg>
